<svg xmlns="http://www.w3.org/2000/svg" enable-background="new 0 0 48 48" viewBox="0 0 48 48"><path fill="#58bf97" d="M6.1,23.8l0-6.1l0-6.3l0-6.6c0-1.1,0.9-2,2-2l10,0l-1.3,4L9.9,20.9L6.1,23.8z"/><path fill="#38a378" d="M17,6.8l-4,0c0,1.7-1.3,3-3,3l0,0.7l0,6.2l0,4.1l3.1,0L17,6.8z"/><path fill="#58bf97" d="M13,20.6l2-5.9l2-6L19,2.4c0.3-1,1.5-1.6,2.5-1.3l17.1,5.7c1,0.3,1.6,1.5,1.3,2.5l-3.8,11.4"/><path fill="#a15b4c" d="M38,20.9H22h-2H10c-2.2,0-4,1.8-4,4v18c0,2.2,1.8,4,4,4h16h2h10c2.2,0,4-1.8,4-4v-18   C42,22.7,40.2,20.9,38,20.9z"/><path fill="#fec367" d="M41,40.9h-8.1c-2.2,0-3.9-1.8-3.9-4v0c0-2.2,1.7-4,3.9-4H41"/><path fill="#010101" d="M17.2,21.8c-0.1,0-0.2,0-0.3-0.1c-0.5-0.2-0.8-0.7-0.6-1.3l4.1-12.4c0.2-0.5,0.7-0.8,1.3-0.6    c1,0.3,2.2-0.2,2.5-1.3c0.1-0.3,0.3-0.5,0.5-0.6c0.2-0.1,0.5-0.1,0.8-0.1l7.6,2.5c0.5,0.2,0.8,0.7,0.6,1.3c-0.3,1,0.2,2.2,1.3,2.5    c0.3,0.1,0.5,0.3,0.6,0.5c0.1,0.2,0.1,0.5,0.1,0.8l-2.6,8c-0.2,0.5-0.7,0.8-1.3,0.6c-0.5-0.2-0.8-0.7-0.6-1.3l2.4-7.1    c-1.2-0.8-1.9-2.2-1.8-3.6l-5.9-2c-0.8,1.2-2.2,1.9-3.6,1.8l-3.8,11.5C18,21.5,17.6,21.8,17.2,21.8z"/><path fill="#38a378" d="M31.9,20.8l2.6-8c-1.6-0.5-2.4-2.2-1.9-3.8l-7.6-2.5c-0.5,1.6-2.2,2.4-3.8,1.9l-0.2,0.7l-2,5.9l-1.9,5.8"/><circle cx="27.3" cy="12.5" r="2" fill="#060707" transform="rotate(-71.652 27.252 12.543)"/><circle cx="33" cy="36.8" r="1" fill="#060707"/><path fill="#060707" d="M38,19.8h-0.5l3.4-10.1c0.3-0.8,0.2-1.6-0.2-2.3c-0.4-0.7-1-1.3-1.7-1.5L21.9,0.2C21.1,0,20.3,0,19.6,0.4    c-0.6,0.3-1.1,0.8-1.4,1.4c-0.1,0-0.1,0-0.2,0c0,0,0,0,0,0l-10,0c-1.7,0-3,1.4-3,3l0.1,19c0,0.1,0,0.1,0,0.1C5,24.2,5,24.5,5,24.8    v18c0,2.8,2.2,5,5,5h28c2.8,0,5-2.2,5-5v-18C43,22,40.8,19.8,38,19.8z M20,2.8c0.1-0.3,0.3-0.5,0.5-0.6C20.7,2.1,21,2,21.2,2.1    l17.1,5.7c0.3,0.1,0.5,0.3,0.6,0.5C39,8.5,39,8.8,38.9,9l-3.6,10.8h-2.1l2.2-6.6c0.1-0.3,0.1-0.5-0.1-0.8    c-0.1-0.2-0.3-0.4-0.6-0.5c-1-0.3-1.6-1.5-1.3-2.5c0.2-0.5-0.1-1.1-0.6-1.3l-7.6-2.5c-0.3-0.1-0.5-0.1-0.8,0.1    c-0.2,0.1-0.4,0.3-0.5,0.6c-0.3,1-1.5,1.6-2.5,1.3c-0.5-0.2-1.1,0.1-1.3,0.6l-3.9,11.7h-2.1L20,2.8z M31.2,19.8H18.5l3.4-10.2    c1.4,0.1,2.8-0.6,3.6-1.8l5.9,2c-0.1,1.4,0.6,2.8,1.8,3.6L31.2,19.8z M12.2,19.8H11l0-9.1c1.4-0.4,2.5-1.5,2.9-2.9l2.3,0    L12.2,19.8z M8,3.8l9.5,0l-0.7,2l-3.8,0c0,0,0,0,0,0c-0.3,0-0.5,0.1-0.7,0.3C12.1,6.3,12,6.5,12,6.8c0,1.1-0.9,2-2,2    c-0.6,0-1,0.4-1,1l0,10.1c-0.7,0.1-1.4,0.5-2,0.9l0-16C7,4.3,7.4,3.8,8,3.8z M41,39.8h-8.1c-1.6,0-2.9-1.3-2.9-3s1.3-3,2.9-3H41    V39.8z M41,31.8h-8.1c-2.7,0-4.9,2.2-4.9,5s2.2,5,4.9,5H41v1c0,1.7-1.3,3-3,3H10c-1.7,0-3-1.3-3-3v-18c0-1.7,1.3-3,3-3h0    c0,0,0,0,0,0H38c1.7,0,3,1.3,3,3V31.8z"/></svg>